<svg width="261" height="130" viewBox="0 0 261 130" fill="none" xmlns="http://www.w3.org/2000/svg">
<g clip-path="url(#clip0_182_86)">
<path d="M29.9321 46.2021L24.9141 51.2201L29.9321 56.2381L34.9501 51.2201L29.9321 46.2021Z" fill="black"/>
<path d="M39.3179 71.9159C39.1359 72.1239 38.9279 72.3319 38.7199 72.5399C36.3019 74.9579 33.1299 76.1799 29.9319 76.1799C26.7339 76.1799 23.5619 74.9579 21.1439 72.5399L4.13994 55.4839C-0.696061 50.6479 -0.696061 42.7699 4.13994 37.9339C6.47994 35.5939 9.59994 34.2939 12.9279 34.2939C16.2559 34.2939 19.3499 35.5939 21.7159 37.9339L29.9579 46.1759L24.9399 51.1939L16.6979 42.9519C15.6839 41.9379 14.3579 41.3919 12.9279 41.3919C11.4979 41.3919 10.1719 41.9379 9.15794 42.9519C7.07794 45.0319 7.07794 48.4119 9.15794 50.4659L18.2579 59.5659L26.2139 67.5219C28.2939 69.6019 31.6739 69.6019 33.7279 67.5219C33.8579 67.3919 33.9879 67.2359 34.1179 67.1059C35.8079 65.0259 35.6779 61.9319 33.7279 60.0079L29.9319 56.2119L34.9499 51.1939L38.7459 54.9899C40.0719 56.3159 41.0599 57.9019 41.6579 59.5659C43.1139 63.6999 42.3339 68.4579 39.3179 71.9159Z" fill="#EF565D"/>
<path d="M55.7499 37.9339C53.4099 35.5939 50.2899 34.2939 46.9619 34.2939C43.6339 34.2939 40.5399 35.5939 38.1739 37.9339L29.9319 46.1759L24.9139 51.1939L21.1699 54.938C19.8439 56.2639 18.8559 57.85 18.2319 59.566L26.0579 67.392L26.0839 67.366C25.1479 66.378 24.6019 65.0779 24.6019 63.6999C24.6019 62.2699 25.1479 60.9439 26.1619 59.9299L34.9239 51.1679L43.1659 42.9259C44.2059 41.8859 45.5579 41.3659 46.9359 41.3659C48.2879 41.3659 49.6659 41.8859 50.7059 42.9259C52.7859 45.0059 52.7859 48.3859 50.7059 50.4399L41.6059 59.5399C43.0879 63.6739 42.3079 68.4319 39.2919 71.8899L55.7239 55.4579C60.5859 50.6479 60.5859 42.7699 55.7499 37.9339Z" fill="#EF565D"/>
<path d="M81.7239 72.6181H75.3799L65.8379 45.1621H71.9479L78.5259 66.1441L85.0779 45.1621H91.2399L81.7239 72.6181Z" fill="white"/>
<path d="M94.386 71.7345C92.8 70.8505 91.552 69.6025 90.668 67.9645C89.784 66.3525 89.342 64.4805 89.342 62.3745C89.342 60.3465 89.784 58.5265 90.668 56.9405C91.552 55.3545 92.8 54.1325 94.386 53.2225C95.972 52.3385 97.818 51.8965 99.872 51.8965C101.926 51.8965 103.772 52.3385 105.358 53.2225C106.944 54.1065 108.192 55.3545 109.076 56.9405C109.96 58.5265 110.402 60.3465 110.402 62.3745C110.402 64.4805 109.96 66.3525 109.076 67.9645C108.192 69.5765 106.97 70.8505 105.384 71.7345C103.798 72.6185 101.952 73.0605 99.872 73.0605C97.818 73.0605 95.998 72.6185 94.386 71.7345ZM103.408 66.7165C104.292 65.6245 104.734 64.1685 104.734 62.3745C104.734 60.6585 104.292 59.2805 103.408 58.1885C102.524 57.0965 101.354 56.5765 99.872 56.5765C98.416 56.5765 97.22 57.1225 96.31 58.1885C95.4 59.2545 94.932 60.6585 94.932 62.3745C94.932 64.1685 95.4 65.6245 96.31 66.7165C97.22 67.8085 98.416 68.3545 99.872 68.3545C101.354 68.3545 102.524 67.8085 103.408 66.7165Z" fill="white"/>
<path d="M117.422 72.6177C115.914 72.6177 114.744 72.2537 113.938 71.5517C113.132 70.8497 112.716 69.7837 112.716 68.3537V45.1357H118.176V66.5857C118.176 67.6257 118.644 68.1457 119.58 68.1457H120.984V72.6177H117.422Z" fill="white"/>
<path d="M123.636 69.6019C123.324 68.9259 123.116 68.1979 123.012 67.4179C122.908 66.6379 122.856 65.4419 122.856 63.8559V52.3379H128.29V63.9339C128.29 64.9479 128.368 65.7539 128.498 66.3519C128.654 66.9759 128.888 67.4439 129.226 67.8079C129.72 68.3539 130.526 68.6399 131.592 68.6399C132.892 68.6399 133.854 68.2499 134.478 67.4959C134.842 67.0799 135.102 66.5599 135.232 65.8839C135.388 65.2079 135.44 64.3239 135.44 63.2319V52.3639H140.9V72.6699H135.44V70.3039C134.738 71.2919 133.984 71.9939 133.126 72.4359C132.294 72.8779 131.254 73.1119 130.058 73.1119C126.886 73.0599 124.754 71.9159 123.636 69.6019Z" fill="white"/>
<path d="M144.124 72.6181V52.3121H149.584V54.6781C150.286 53.6381 151.066 52.9101 151.898 52.4941C152.756 52.0781 153.744 51.8701 154.914 51.8701C158.19 51.8701 160.348 53.0141 161.362 55.3281C161.752 56.1081 161.986 56.9141 162.064 57.7461C162.142 58.5521 162.194 59.6701 162.194 61.1001V72.6181H156.76V61.0221C156.76 60.0081 156.682 59.2021 156.552 58.6041C156.396 57.9801 156.162 57.5121 155.824 57.1481C155.304 56.6021 154.498 56.3161 153.458 56.3161C152.106 56.3161 151.144 56.7061 150.546 57.4601C150.208 57.8761 149.974 58.3961 149.818 59.0721C149.662 59.7481 149.61 60.6321 149.61 61.7241V72.5921H144.124V72.6181Z" fill="white"/>
<path d="M170.488 71.2656C168.46 69.9656 166.952 68.2496 165.964 66.0916C164.976 63.9336 164.482 61.5416 164.482 58.8896C164.482 56.2376 164.976 53.8456 165.964 51.7136C166.952 49.5556 168.46 47.8396 170.488 46.5656C172.516 45.2916 175.012 44.6416 177.976 44.6416C181.408 44.6416 184.164 45.4996 186.244 47.2156C188.324 48.9316 189.546 51.2456 189.91 54.1576H183.54C183.332 52.7536 182.708 51.7136 181.694 50.9596C180.68 50.2316 179.406 49.8676 177.872 49.8676C175.532 49.8676 173.738 50.6736 172.49 52.3116C171.242 53.9496 170.592 56.1336 170.592 58.8896C170.592 61.6716 171.216 63.8816 172.49 65.5196C173.738 67.1576 175.532 67.9896 177.872 67.9896C179.432 67.9896 180.706 67.6256 181.72 66.8716C182.734 66.1176 183.332 64.9996 183.566 63.5176H189.936C189.546 66.4816 188.324 68.8476 186.27 70.5896C184.216 72.3316 181.46 73.1896 178.028 73.1896C175.012 73.1896 172.516 72.5656 170.488 71.2656Z" fill="white"/>
<path d="M192.094 72.6181V45.1621H197.554V54.7041C198.256 53.6641 199.036 52.9361 199.894 52.5201C200.752 52.1041 201.766 51.8961 202.91 51.8961C206.16 51.8961 208.292 53.0401 209.358 55.3541C209.722 56.1341 209.93 56.9401 210.034 57.7721C210.112 58.5781 210.164 59.6961 210.164 61.1261V72.6441H204.73V61.0481C204.73 60.0341 204.652 59.2281 204.522 58.6301C204.366 58.0061 204.132 57.5381 203.794 57.1741C203.274 56.6281 202.468 56.3421 201.428 56.3421C200.05 56.3421 199.088 56.7321 198.542 57.4861C198.204 57.9021 197.97 58.4221 197.814 59.0981C197.658 59.7741 197.58 60.6581 197.58 61.7501V72.6181H192.094Z" fill="white"/>
<path d="M214.35 71.4481C213.102 70.3821 212.478 68.8741 212.478 66.9761C212.478 64.9221 213.284 63.3361 214.922 62.2181C215.988 61.4901 217.574 60.9441 219.68 60.5541L225.322 59.5141C225.296 58.3961 225.01 57.5121 224.412 56.9141C223.892 56.3421 223.086 56.0561 222.046 56.0561C221.214 56.0561 220.486 56.3161 219.862 56.8361C219.238 57.3561 218.848 58.0581 218.666 58.9421H213.232C213.466 57.3821 214.038 56.0821 214.896 55.0161C215.78 53.9501 216.846 53.1701 218.094 52.6501C219.342 52.1301 220.668 51.8701 222.072 51.8701C223.294 51.8701 224.438 52.0261 225.53 52.3641C226.622 52.7021 227.532 53.1961 228.312 53.8721C229.092 54.5481 229.638 55.3281 229.976 56.2121C230.314 57.0961 230.548 58.0061 230.626 58.9421C230.704 59.8781 230.756 61.0481 230.756 62.5301V72.6181H225.296V69.9921C224.906 70.8501 224.36 71.5001 223.684 71.9421C222.592 72.6961 221.058 73.0601 219.16 73.0601C217.184 73.0601 215.598 72.5141 214.35 71.4481ZM222.982 68.3021C223.892 67.8601 224.516 67.2881 224.854 66.5341C225.192 65.7801 225.374 64.7661 225.426 63.4401L221.136 64.2721C220.434 64.4281 219.888 64.5841 219.498 64.7401C219.108 64.8961 218.77 65.1041 218.51 65.3641C218.094 65.7801 217.886 66.2481 217.886 66.7941C217.886 67.4701 218.146 67.9641 218.64 68.3281C219.134 68.6661 219.784 68.8481 220.59 68.8481C221.448 68.8481 222.254 68.6661 222.982 68.3021Z" fill="white"/>
<path d="M239.232 72.6175H233.772V52.3115H239.232V72.6175Z" fill="white"/>
<path d="M242.43 72.6181V52.3121H247.89V54.6781C248.592 53.6381 249.372 52.9101 250.204 52.4941C251.062 52.0781 252.05 51.8701 253.22 51.8701C256.496 51.8701 258.654 53.0141 259.668 55.3281C260.058 56.1081 260.292 56.9141 260.37 57.7461C260.448 58.5521 260.5 59.6701 260.5 61.1001V72.6181H255.066V61.0221C255.066 60.0081 254.988 59.2021 254.858 58.6041C254.702 57.9801 254.468 57.5121 254.13 57.1481C253.61 56.6021 252.804 56.3161 251.764 56.3161C250.412 56.3161 249.45 56.7061 248.852 57.4601C248.514 57.8761 248.28 58.3961 248.124 59.0721C247.968 59.7481 247.916 60.6321 247.916 61.7241V72.5921H242.43V72.6181Z" fill="white"/>
<path d="M239.206 45.708H233.746V51.168H239.206V45.708Z" fill="#EF565D"/>
</g>
<defs>
<clipPath id="clip0_182_86">
<rect width="260" height="130" fill="white" transform="translate(0.5)"/>
</clipPath>
</defs>
</svg>
