<svg width="83" height="63" viewBox="0 0 83 63" fill="none" xmlns="http://www.w3.org/2000/svg">
<path d="M51.2518 49.419C51.0625 49.6425 50.8461 49.8659 50.6298 50.0894C48.1144 52.6871 44.8147 54 41.488 54C38.1613 54 34.8616 52.6871 32.3462 50.0894L14.6578 31.7654C9.6271 26.5698 9.6271 18.1061 14.6578 12.9106C17.092 10.3966 20.3376 9 23.7995 9C27.2615 9 30.48 10.3966 32.9413 12.9106L41.5151 21.7654L36.2951 27.1564L27.7213 18.3017C26.6665 17.2123 25.2871 16.6257 23.7995 16.6257C22.312 16.6257 20.9326 17.2123 19.8778 18.3017C17.714 20.5363 17.714 24.1676 19.8778 26.3743L29.3441 36.1508L37.6203 44.6983C39.7841 46.933 43.3001 46.933 45.4368 44.6983C45.572 44.5587 45.7073 44.3911 45.8425 44.2514C47.6005 42.0168 47.4653 38.6927 45.4368 36.6257L41.488 32.5475L46.708 27.1564L50.6568 31.2346C52.0362 32.6592 53.064 34.3631 53.686 36.1508C55.2006 40.5922 54.3892 45.7039 51.2518 49.419Z" fill="#EF565D"/>
<path d="M68.3447 12.9106C65.9105 10.3966 62.6649 9 59.2029 9C55.7409 9 52.5224 10.3966 50.0612 12.9106L41.4874 21.7654L36.2674 27.1564L32.3727 31.1788C30.9933 32.6034 29.9655 34.3073 29.3164 36.1508L37.4574 44.5587L37.4845 44.5307C36.5108 43.4693 35.9428 42.0726 35.9428 40.5922C35.9428 39.0559 36.5108 37.6313 37.5656 36.5419L46.6803 27.1285L55.2541 18.2737C56.336 17.1564 57.7424 16.5978 59.1759 16.5978C60.5823 16.5978 62.0158 17.1564 63.0976 18.2737C65.2614 20.5084 65.2614 24.1397 63.0976 26.3464L53.6313 36.1229C55.173 40.5642 54.3616 45.676 51.2242 49.3911L68.3176 31.7374C73.3753 26.5698 73.3753 18.1061 68.3447 12.9106Z" fill="#EF565D"/>
</svg>
